<svg xmlns="http://www.w3.org/2000/svg" version="1.0" viewBox="0 0 300.000000 300.000000" preserveAspectRatio="xMidYMid meet">
<metadata>
Created by potrace 1.10, written by Peter Selinger 2001-2011
</metadata>
<g transform="translate(0.000000,300.000000) scale(0.100000,-0.100000)" fill="#000000" stroke="none">
<path d="M0 1500 l0 -1500 1500 0 1500 0 0 1500 0 1500 -1500 0 -1500 0 0 -1500z m2251 719 c20 -10 27 -49 9 -49 -5 0 -10 -7 -10 -15 0 -10 12 -16 38 -17 20 -1 46 -2 56 -2 13 -1 22 -12 27 -29 4 -15 3 -25 -1 -22 -5 3 -14 -4 -20 -15 -8 -15 -21 -20 -54 -20 -25 0 -48 6 -55 14 -12 15 -5 46 11 46 16 0 3 23 -15 26 -16 2 -22 -8 -17 -31 1 -5 -2 -7 -6 -3 -7 7 -41 -31 -37 -42 1 -3 -7 -8 -19 -13 -11 -4 -18 -13 -15 -20 3 -9 -13 -12 -62 -11 -88 2 -111 -4 -111 -28 0 -10 -4 -16 -10 -13 -5 3 -10 1 -10 -4 0 -6 11 -11 25 -11 28 0 41 -20 30 -47 -3 -10 -6 -20 -5 -23 1 -2 -6 -7 -16 -10 -16 -6 -16 -8 4 -28 12 -12 22 -27 22 -32 0 -13 -28 -58 -49 -82 -9 -9 -27 -28 -40 -42 -22 -25 -29 -26 -120 -26 -102 0 -118 -4 -99 -27 8 -11 7 -12 -5 -8 -8 4 -18 2 -22 -4 -4 -7 7 -11 30 -11 39 0 55 -20 35 -45 -7 -8 -9 -15 -4 -15 5 0 -2 -7 -14 -16 -12 -8 -22 -24 -22 -35 0 -10 -4 -18 -9 -16 -5 1 -10 -2 -12 -8 -1 -5 -9 -15 -17 -21 -8 -6 -12 -16 -8 -22 4 -8 2 -10 -8 -6 -9 3 -17 -2 -21 -15 -3 -12 -11 -21 -16 -21 -5 0 -9 -6 -9 -13 0 -7 -9 -19 -20 -27 -11 -8 -20 -19 -20 -25 0 -6 -9 -16 -20 -23 -11 -7 -20 -22 -20 -33 0 -15 -5 -19 -15 -15 -9 3 -15 0 -15 -9 0 -8 -4 -15 -10 -15 -5 0 -10 -6 -10 -14 0 -8 -7 -16 -15 -20 -8 -3 -14 -10 -13 -15 2 -5 -1 -9 -7 -9 -9 -1 -23 -27 -24 -48 -1 -14 635 -16 663 -2 13 7 16 7 12 -1 -4 -7 1 -11 13 -11 20 0 34 -14 37 -37 1 -7 -2 -13 -6 -13 -5 0 -19 -17 -31 -37 -13 -21 -38 -53 -57 -71 -18 -19 -30 -38 -26 -45 4 -7 4 -9 0 -5 -9 7 -46 -21 -46 -35 0 -5 -15 -24 -34 -43 l-34 -34 -581 0 -582 0 -8 22 c-6 16 -2 27 14 42 12 12 31 36 43 54 11 18 22 33 26 33 3 -1 39 -1 79 -1 52 0 74 4 74 13 0 8 -16 11 -54 9 -30 -2 -71 0 -91 4 -31 8 -21 10 63 14 96 6 94 6 -51 8 -121 2 -154 5 -164 17 -10 12 -10 15 0 15 7 0 10 8 7 19 -2 10 1 18 7 17 6 0 11 2 11 6 0 4 10 15 23 23 12 9 22 20 22 26 0 5 9 18 20 29 18 18 33 20 190 20 98 0 170 4 170 9 0 5 9 13 21 16 32 10 16 17 -53 21 -72 5 -84 13 -69 43 7 12 8 21 4 21 -4 0 0 5 10 11 9 6 15 14 12 20 -4 5 2 9 11 9 10 0 15 3 12 6 -11 10 42 58 78 70 22 7 56 9 94 5 33 -4 58 -5 55 -3 -3 3 8 16 23 28 l27 24 -72 0 c-71 0 -80 4 -73 35 1 6 3 15 3 22 0 7 5 11 11 10 5 -1 10 3 11 10 0 6 14 24 31 40 16 16 28 35 26 42 -2 6 2 10 10 9 7 -2 12 3 10 10 -1 8 2 11 7 7 10 -6 37 33 33 48 -1 4 4 6 10 5 8 -2 12 5 10 16 -2 10 1 15 7 12 11 -7 43 31 61 73 7 17 16 28 21 25 5 -3 9 2 9 11 0 9 5 13 10 10 6 -3 10 0 10 8 0 8 7 18 16 21 8 3 12 11 8 17 -4 8 -3 9 4 5 8 -5 12 0 12 13 0 20 -5 21 -165 21 -91 0 -165 -4 -165 -8 0 -5 24 -6 54 -4 46 3 54 1 58 -15 8 -32 -26 -65 -64 -61 -30 3 -33 6 -32 35 2 29 0 31 -17 22 -10 -5 -19 -6 -19 -2 0 4 -9 -3 -20 -17 -18 -24 -26 -25 -137 -30 -154 -7 -168 -4 -182 26 -6 14 -7 23 -2 20 5 -3 16 5 25 18 8 14 12 26 8 29 -4 2 -1 2 5 1 13 -3 39 34 35 49 -1 4 4 7 11 7 7 0 21 15 32 33 10 17 25 36 32 40 7 5 11 13 7 18 -3 5 -2 8 3 7 4 -2 8 1 8 5 0 5 8 13 18 18 9 6 14 15 11 21 -4 7 -2 8 4 4 10 -6 35 27 37 49 1 6 6 9 13 8 7 -2 12 2 12 7 0 6 10 15 23 19 32 13 1114 13 1138 0z m-6 -235 c16 -12 18 -18 7 -34 -6 -11 -12 -28 -12 -37 0 -12 -3 -14 -8 -6 -5 8 -15 1 -31 -23 -22 -31 -28 -34 -77 -35 -30 -1 -59 -2 -65 -3 -6 -1 -18 9 -27 22 -12 18 -12 21 -1 17 10 -4 21 9 34 39 11 24 23 40 26 34 4 -6 11 -2 18 10 16 31 102 41 136 16z m-141 -159 c-3 -6 -11 -12 -18 -12 -8 0 -12 6 -10 12 3 6 11 12 18 12 8 0 12 -6 10 -12z m126 -39 c0 -8 3 -23 6 -33 4 -14 4 -15 -4 -4 -8 11 -11 10 -16 -7 -4 -12 -21 -33 -37 -47 -27 -22 -40 -25 -105 -25 -79 0 -95 10 -78 48 4 9 6 20 6 25 -1 4 5 7 13 7 8 0 15 6 15 13 0 29 25 37 112 37 69 0 88 -3 88 -14z m-1110 -20 c0 -14 -4 -28 -10 -31 -5 -3 -10 -14 -10 -25 0 -11 -10 -20 -25 -24 -14 -4 -25 -11 -25 -17 0 -6 6 -7 13 -3 8 5 7 2 -2 -9 -13 -16 -8 -17 69 -16 92 1 110 -9 84 -48 -8 -13 -12 -23 -8 -23 11 0 -39 -36 -61 -44 -16 -6 -17 -9 -5 -16 11 -7 8 -10 -13 -10 -16 0 -26 4 -22 9 3 5 1 12 -4 15 -5 4 -13 1 -17 -5 -5 -8 -9 -7 -15 2 -6 10 -13 10 -34 1 -17 -8 -24 -8 -20 -1 4 6 1 10 -6 8 -27 -3 -37 1 -42 20 -3 12 1 22 10 25 9 4 13 13 9 23 -4 10 -4 14 0 10 9 -9 54 32 54 50 0 10 -19 13 -72 13 -40 0 -78 4 -84 8 -16 10 -25 52 -10 49 6 -1 10 4 9 11 -2 6 4 12 12 12 8 0 15 6 15 14 0 21 15 24 118 25 91 1 92 1 92 -23z m190 -6 c0 -24 -26 -60 -52 -73 -30 -14 -95 -13 -111 3 -10 8 14 60 35 77 29 24 128 18 128 -7z m-115 -100 c3 -5 1 -10 -4 -10 -6 0 -11 5 -11 10 0 6 2 10 4 10 3 0 8 -4 11 -10z m827 -22 c-9 -9 -15 -9 -24 1 -11 11 -10 13 5 8 10 -4 17 -2 17 5 0 6 3 8 7 5 4 -4 1 -13 -5 -19z m22 -28 c5 -5 6 -17 2 -27 -4 -10 -8 -20 -8 -23 -3 -14 -37 -29 -66 -30 -46 0 -73 16 -65 38 9 22 33 48 53 55 18 7 71 -2 84 -13z m-69 -100 c-3 -5 -11 -10 -16 -10 -6 0 -7 5 -4 10 3 6 11 10 16 10 6 0 7 -4 4 -10z m-965 -29 c19 -6 24 -13 22 -32 -2 -13 -8 -26 -13 -27 -5 -2 -7 -8 -3 -13 3 -5 0 -9 -6 -9 -7 0 -19 -9 -28 -20 -14 -16 -32 -21 -87 -24 -98 -5 -133 20 -86 61 11 9 17 23 13 31 -3 9 -1 13 5 9 5 -3 17 3 26 14 13 15 29 19 74 18 32 -1 69 -4 83 -8z m960 0 c19 -6 24 -13 22 -32 -1 -13 -7 -26 -12 -27 -6 -2 -8 -8 -4 -13 3 -5 0 -9 -6 -9 -7 0 -19 -9 -29 -21 -14 -18 -29 -21 -110 -22 -52 -1 -96 2 -101 8 -12 14 13 68 46 99 26 23 36 26 99 25 38 -1 81 -4 95 -8z m-147 -158 c-7 -2 -19 -2 -25 0 -7 3 -2 5 12 5 14 0 19 -2 13 -5z m111 -23 c15 -14 -2 -53 -39 -92 l-36 -38 -85 0 c-95 0 -106 8 -80 58 8 16 12 32 9 36 -4 3 -1 6 5 6 13 0 53 36 47 42 -2 2 36 2 83 0 48 -2 91 -7 96 -12z m-960 -5 c7 -19 -3 -45 -17 -45 -6 0 -7 -3 -4 -7 15 -14 -31 -32 -83 -33 -72 0 -84 8 -75 51 5 19 10 28 13 21 3 -10 8 -7 19 7 12 18 25 21 77 21 48 0 65 -4 70 -15z m1142 -29 c3 -7 -4 -31 -15 -52 -12 -21 -21 -35 -21 -30 0 5 -6 4 -12 -1 -11 -8 -39 -9 -99 -4 -10 0 -18 12 -21 30 -3 22 -1 28 11 23 9 -3 12 -1 7 6 -3 6 4 18 16 26 29 21 126 22 134 2z m-1191 -74 c-9 -9 -115 -8 -115 1 0 4 27 7 60 6 33 -1 58 -5 55 -7z m-189 -264 c10 -12 14 -19 8 -15 -6 3 -17 -5 -24 -19 -12 -21 -20 -25 -54 -22 -47 3 -56 21 -29 55 24 30 73 30 99 1z m672 -145 c-10 -2 -26 -2 -35 0 -10 3 -2 5 17 5 19 0 27 -2 18 -5z m242 -3 c0 -5 -2 -10 -4 -10 -3 0 -8 5 -11 10 -3 6 -1 10 4 10 6 0 11 -4 11 -10z" />
<path d="M1007 2065 c-60 -77 -124 -155 -140 -172 l-31 -33 140 0 140 0 30 40 29 40 207 0 208 0 -64 -77 c-35 -43 -120 -148 -189 -233 l-125 -155 152 -5 151 -5 30 35 c90 105 107 111 28 10 -24 -30 -47 -59 -51 -65 -4 -5 -40 -50 -80 -99 -39 -49 -69 -94 -65 -100 3 -6 3 -8 -2 -4 -8 8 -15 1 -68 -63 -33 -41 -49 -77 -29 -66 4 3 16 1 27 -4 14 -5 7 -8 -28 -8 l-48 -1 56 68 c148 181 227 283 222 288 -2 3 -15 -8 -27 -23 -20 -25 -22 -26 -15 -5 6 21 4 23 -27 21 -18 -1 -40 1 -48 4 -10 4 -26 -8 -46 -35 l-31 -41 -89 2 -89 2 -52 -68 -52 -68 144 -3 c80 -1 145 -6 145 -10 -1 -11 -71 -84 -76 -79 -3 2 7 15 21 28 33 31 31 37 -8 36 -18 -1 -38 2 -44 6 -7 4 -24 -10 -43 -33 l-32 -40 -176 0 -177 -1 -48 -64 -47 -65 240 0 241 0 -33 -39 c-18 -22 -35 -38 -37 -35 -2 2 3 12 12 22 23 25 22 29 -13 30 -17 0 -39 3 -49 7 -14 4 -27 -5 -51 -35 -32 -40 -32 -40 -103 -41 l-72 0 -43 -55 -43 -54 580 0 579 0 110 138 110 137 -388 5 -387 5 199 248 199 247 -56 0 -56 0 25 33 c15 19 26 36 26 38 0 8 -112 1 -119 -7 -3 -5 -22 -22 -40 -39 l-34 -30 21 30 c49 68 46 67 114 65 34 -1 110 -1 168 0 l105 1 54 71 55 71 -48 -6 c-38 -6 -46 -4 -39 6 5 6 27 33 47 60 l38 47 -51 0 -51 0 37 50 37 50 76 0 75 0 63 80 c34 44 62 81 62 82 0 2 -255 3 -566 3 l-566 0 -111 -140z m809 -33 c-2 -4 -30 -6 -63 -5 -32 0 -64 -4 -72 -10 -12 -9 -13 -9 -7 1 4 6 3 12 -1 12 -5 0 -15 -6 -22 -12 -9 -8 -11 -9 -7 -2 4 9 -46 12 -194 12 -128 0 -200 -4 -200 -10 0 -6 -8 -4 -17 3 -15 12 -16 12 -8 -1 7 -12 6 -13 -6 -4 -23 18 -82 15 -101 -6 -9 -10 -15 -21 -12 -24 2 -3 1 -4 -2 -1 -4 2 -20 -10 -37 -28 l-29 -32 23 35 c12 19 31 45 43 58 l20 22 348 0 c192 -1 347 -4 344 -8z m129 -2 c-4 -6 -11 -8 -16 -5 -5 4 -9 0 -9 -7 0 -9 -3 -9 -10 2 -8 12 -10 12 -10 1 0 -9 -8 -12 -27 -8 -33 6 -55 -1 -46 -16 4 -6 1 -7 -6 -3 -9 6 -8 13 5 27 13 14 31 19 71 19 34 0 52 -4 48 -10z m-167 -70 c-13 -20 -37 -24 -122 -21 -65 2 -54 11 15 12 35 1 70 1 77 0 7 -1 15 5 18 14 3 8 10 15 15 15 5 0 4 -9 -3 -20z m105 -62 c-10 -18 -25 -38 -33 -45 -13 -10 -10 -13 15 -14 26 -2 25 -3 -10 -8 -22 -4 -42 -6 -44 -4 -4 2 80 103 86 103 2 0 -4 -15 -14 -32z m-143 -1 c0 -2 -10 -12 -22 -23 l-23 -19 19 23 c18 21 26 27 26 19z m-306 -516 c-3 -3 -15 6 -27 18 l-22 24 27 -19 c14 -10 24 -21 22 -23z m-216 -228 c-10 -2 -26 -2 -35 0 -10 3 -2 5 17 5 19 0 27 -2 18 -5z m237 -232 c-2 -4 -68 -7 -147 -6 -79 1 -148 -2 -154 -7 -6 -4 -18 -2 -28 5 -14 10 14 13 158 14 97 0 174 -2 171 -6z m480 0 c2 -5 -99 -8 -225 -9 -126 0 -234 -3 -239 -7 -6 -3 -8 0 -5 8 4 11 48 14 234 15 127 0 232 -3 235 -7z" />
<path d="M2265 2093 c-15 -23 -15 -23 24 -23 30 0 42 5 55 25 l17 26 -41 -3 c-29 -1 -44 -8 -55 -25z" />
<path d="M1220 1870 c-9 -17 -8 -20 13 -20 13 0 32 9 42 20 18 20 17 20 -13 20 -21 0 -35 -7 -42 -20z" />
<path d="M2178 1973 c-43 -4 -49 -8 -89 -60 -38 -51 -40 -56 -18 -50 13 4 40 7 59 7 31 0 41 7 73 50 37 50 43 61 30 58 -5 -1 -29 -3 -55 -5z" />
<path d="M2139 1782 l-76 -3 -32 -44 -32 -45 78 0 78 1 33 45 c19 25 32 46 30 47 -1 1 -37 1 -79 -1z" />
<path d="M910 1730 l-32 -40 85 0 85 0 32 40 32 40 -85 0 -85 0 -32 -40z" />
<path d="M1015 1593 c-41 -55 -43 -53 52 -53 l88 0 28 40 28 40 -88 0 c-83 -1 -89 -2 -108 -27z" />
<path d="M1180 1733 l-22 -28 42 -3 c42 -3 63 7 81 40 9 16 5 18 -35 18 -37 0 -48 -5 -66 -27z" />
<path d="M1988 1603 c-25 -3 -41 -12 -52 -29 l-16 -24 39 0 c33 0 43 5 61 30 12 17 18 29 13 28 -4 -1 -25 -3 -45 -5z" />
<path d="M841 1424 c-17 -23 -31 -44 -31 -46 0 -1 33 -2 74 0 72 3 75 4 105 42 17 21 31 40 31 42 0 2 -34 3 -74 4 l-75 1 -30 -43z" />
<path d="M1773 1425 c-18 -24 -33 -45 -33 -47 0 -2 39 -2 87 0 87 3 88 3 120 40 18 20 33 40 33 45 0 4 -39 7 -87 7 l-88 -1 -32 -44z" />
<path d="M1726 1240 l-36 -51 82 3 83 2 38 48 37 48 -84 0 -84 0 -36 -50z" />
<path d="M838 1273 c-34 -40 -32 -43 26 -43 49 0 57 3 76 30 l21 30 -54 0 c-39 0 -58 -5 -69 -17z" />
<path d="M2053 1260 c-40 -4 -56 -11 -72 -32 -12 -14 -21 -28 -21 -30 0 -1 24 -1 52 1 44 3 57 8 77 33 13 16 22 30 20 31 -2 1 -27 0 -56 -3z" />
<path d="M652 910 c-11 -18 -10 -20 16 -20 16 0 32 8 40 20 11 18 10 20 -16 20 -16 0 -32 -8 -40 -20z" />
</g>
</svg>